<mxfile host="app.diagrams.net" modified="2020-10-10T19:43:06.882Z" agent="5.0 (Windows NT 10.0; Win64; x64) AppleWebKit/537.36 (KHTML, like Gecko) Chrome/86.0.4240.75 Safari/537.36" etag="W4c--7dhj1DF-M2JLvfF" version="13.7.9" type="github">
  <diagram name="Page-1" id="efa7a0a1-bf9b-a30e-e6df-94a7791c09e9">
    <mxGraphModel dx="8213" dy="5551" grid="1" gridSize="10" guides="1" tooltips="1" connect="1" arrows="0" fold="1" page="1" pageScale="1" pageWidth="826" pageHeight="1169" background="#ffffff" math="0" shadow="0">
      <root>
        <mxCell id="0" />
        <mxCell id="1" parent="0" />
        <mxCell id="Hv8IBSRjTYZ65yWQU2d2-154" value="" style="rounded=0;whiteSpace=wrap;html=1;fillColor=none;fontSize=30;" parent="1" vertex="1">
          <mxGeometry x="220" y="-2310" width="2500" height="1730" as="geometry" />
        </mxCell>
        <mxCell id="Hv8IBSRjTYZ65yWQU2d2-122" value="" style="ellipse;whiteSpace=wrap;html=1;fontSize=26;" parent="1" vertex="1">
          <mxGeometry x="600" y="-1169" width="590" height="260" as="geometry" />
        </mxCell>
        <mxCell id="Hv8IBSRjTYZ65yWQU2d2-123" value="&lt;b&gt;&lt;font style=&quot;font-size: 55px&quot;&gt;Finding Data on COVID-19 Cases in Prisons&lt;/font&gt;&lt;/b&gt;" style="text;html=1;strokeColor=none;fillColor=none;align=center;verticalAlign=middle;whiteSpace=wrap;rounded=0;fontSize=47;" parent="1" vertex="1">
          <mxGeometry x="650" y="-1104" width="500" height="130" as="geometry" />
        </mxCell>
        <mxCell id="Hv8IBSRjTYZ65yWQU2d2-125" value="&lt;font style=&quot;font-size: 50px&quot;&gt;&lt;b&gt;CDC Employee&lt;/b&gt;&lt;/font&gt;" style="shape=umlActor;verticalLabelPosition=bottom;verticalAlign=top;html=1;fontSize=38;" parent="1" vertex="1">
          <mxGeometry x="580" y="-59" width="310" height="490" as="geometry" />
        </mxCell>
        <mxCell id="Hv8IBSRjTYZ65yWQU2d2-126" value="" style="endArrow=none;html=1;fontSize=47;" parent="1" edge="1">
          <mxGeometry width="50" height="50" relative="1" as="geometry">
            <mxPoint x="640" y="-880" as="sourcePoint" />
            <mxPoint x="160" y="-200" as="targetPoint" />
          </mxGeometry>
        </mxCell>
        <mxCell id="Hv8IBSRjTYZ65yWQU2d2-128" value="&lt;font style=&quot;font-size: 50px&quot;&gt;&lt;b&gt;Pandemic Research Specialist&lt;/b&gt;&lt;/font&gt;" style="shape=umlActor;verticalLabelPosition=bottom;verticalAlign=top;html=1;fontSize=38;" parent="1" vertex="1">
          <mxGeometry x="-40" y="-170" width="310" height="490" as="geometry" />
        </mxCell>
        <mxCell id="Hv8IBSRjTYZ65yWQU2d2-129" value="" style="endArrow=none;html=1;fontSize=38;" parent="1" edge="1">
          <mxGeometry width="50" height="50" relative="1" as="geometry">
            <mxPoint x="750" y="-80" as="sourcePoint" />
            <mxPoint x="790" y="-870" as="targetPoint" />
            <Array as="points" />
          </mxGeometry>
        </mxCell>
        <mxCell id="Hv8IBSRjTYZ65yWQU2d2-130" value="&lt;font style=&quot;font-size: 50px&quot;&gt;&lt;b&gt;Prison Manager&lt;/b&gt;&lt;/font&gt;" style="shape=umlActor;verticalLabelPosition=bottom;verticalAlign=top;html=1;fontSize=38;" parent="1" vertex="1">
          <mxGeometry x="1272" y="231" width="310" height="490" as="geometry" />
        </mxCell>
        <mxCell id="Hv8IBSRjTYZ65yWQU2d2-132" value="" style="ellipse;whiteSpace=wrap;html=1;fontSize=26;" parent="1" vertex="1">
          <mxGeometry x="1392" y="-319" width="590" height="260" as="geometry" />
        </mxCell>
        <mxCell id="Hv8IBSRjTYZ65yWQU2d2-133" value="" style="endArrow=none;html=1;fontSize=38;" parent="1" edge="1">
          <mxGeometry width="50" height="50" relative="1" as="geometry">
            <mxPoint x="1452" y="201" as="sourcePoint" />
            <mxPoint x="1562" y="-29" as="targetPoint" />
          </mxGeometry>
        </mxCell>
        <mxCell id="Hv8IBSRjTYZ65yWQU2d2-134" value="&lt;b&gt;&lt;font style=&quot;font-size: 55px&quot;&gt;Make Budget for PPE and Medical Care&lt;/font&gt;&lt;/b&gt;" style="text;html=1;strokeColor=none;fillColor=none;align=center;verticalAlign=middle;whiteSpace=wrap;rounded=0;fontSize=47;" parent="1" vertex="1">
          <mxGeometry x="1487" y="-249" width="380" height="130" as="geometry" />
        </mxCell>
        <mxCell id="Hv8IBSRjTYZ65yWQU2d2-136" value="" style="endArrow=classic;dashed=1;endFill=1;endSize=12;html=1;fontSize=38;spacing=5;spacingTop=16;fontStyle=0;strokeWidth=5;startArrow=none;startFill=0;entryX=1;entryY=1;entryDx=0;entryDy=0;" parent="1" target="Hv8IBSRjTYZ65yWQU2d2-122" edge="1">
          <mxGeometry width="160" relative="1" as="geometry">
            <mxPoint x="1692" y="-359" as="sourcePoint" />
            <mxPoint x="1412" y="-880" as="targetPoint" />
          </mxGeometry>
        </mxCell>
        <mxCell id="Hv8IBSRjTYZ65yWQU2d2-138" value="&lt;font style=&quot;font-size: 50px&quot;&gt;&lt;b&gt;&amp;lt;&amp;lt;include&amp;gt;&amp;gt;&lt;/b&gt;&lt;/font&gt;" style="text;html=1;strokeColor=none;fillColor=none;align=center;verticalAlign=middle;whiteSpace=wrap;rounded=0;fontSize=30;rotation=0;" parent="1" vertex="1">
          <mxGeometry x="1582" y="-469" width="380" height="130" as="geometry" />
        </mxCell>
        <mxCell id="Hv8IBSRjTYZ65yWQU2d2-139" value="&lt;font style=&quot;font-size: 50px&quot;&gt;&lt;b&gt;Doctor/Nurse&lt;/b&gt;&lt;/font&gt;" style="shape=umlActor;verticalLabelPosition=bottom;verticalAlign=top;html=1;fontSize=38;" parent="1" vertex="1">
          <mxGeometry x="1811" y="231" width="310" height="490" as="geometry" />
        </mxCell>
        <mxCell id="Hv8IBSRjTYZ65yWQU2d2-140" value="" style="endArrow=none;html=1;strokeWidth=1;fontSize=30;" parent="1" edge="1">
          <mxGeometry width="50" height="50" relative="1" as="geometry">
            <mxPoint x="1912" y="211" as="sourcePoint" />
            <mxPoint x="1802" y="-29" as="targetPoint" />
          </mxGeometry>
        </mxCell>
        <mxCell id="Hv8IBSRjTYZ65yWQU2d2-142" value="&lt;font size=&quot;1&quot;&gt;&lt;b style=&quot;font-size: 90px&quot;&gt;COVID-19 Spread in Prisons by County Mapping Program&lt;/b&gt;&lt;/font&gt;" style="text;html=1;strokeColor=none;fillColor=none;align=center;verticalAlign=middle;whiteSpace=wrap;rounded=0;fontSize=30;" parent="1" vertex="1">
          <mxGeometry x="640" y="-2230" width="1644" height="160" as="geometry" />
        </mxCell>
        <mxCell id="Hv8IBSRjTYZ65yWQU2d2-144" value="" style="endArrow=none;html=1;strokeWidth=5;fontSize=30;dashed=1;startArrow=classic;startFill=1;" parent="1" edge="1">
          <mxGeometry width="50" height="50" relative="1" as="geometry">
            <mxPoint x="1730" y="-1030" as="sourcePoint" />
            <mxPoint x="1210" y="-1030" as="targetPoint" />
          </mxGeometry>
        </mxCell>
        <mxCell id="Hv8IBSRjTYZ65yWQU2d2-145" value="&lt;b&gt;&lt;font style=&quot;font-size: 50px&quot;&gt;&amp;lt;&amp;lt;extends&amp;gt;&amp;gt;&lt;/font&gt;&lt;/b&gt;" style="text;html=1;strokeColor=none;fillColor=none;align=center;verticalAlign=middle;whiteSpace=wrap;rounded=0;fontSize=30;rotation=0;" parent="1" vertex="1">
          <mxGeometry x="1272" y="-1130" width="380" height="130" as="geometry" />
        </mxCell>
        <mxCell id="Hv8IBSRjTYZ65yWQU2d2-146" value="" style="ellipse;whiteSpace=wrap;html=1;fontSize=26;" parent="1" vertex="1">
          <mxGeometry x="1740" y="-1169" width="590" height="260" as="geometry" />
        </mxCell>
        <mxCell id="Hv8IBSRjTYZ65yWQU2d2-147" value="&lt;font style=&quot;font-size: 55px&quot;&gt;&lt;b&gt;Finding Data on COVID-19 Deaths in Prisons&lt;/b&gt;&lt;/font&gt;" style="text;html=1;strokeColor=none;fillColor=none;align=center;verticalAlign=middle;whiteSpace=wrap;rounded=0;fontSize=47;" parent="1" vertex="1">
          <mxGeometry x="1757.5" y="-1090" width="555" height="130" as="geometry" />
        </mxCell>
        <mxCell id="Hv8IBSRjTYZ65yWQU2d2-149" value="" style="ellipse;whiteSpace=wrap;html=1;fontSize=26;" parent="1" vertex="1">
          <mxGeometry x="595" y="-1800" width="590" height="260" as="geometry" />
        </mxCell>
        <mxCell id="Hv8IBSRjTYZ65yWQU2d2-150" value="&lt;b&gt;&lt;font style=&quot;font-size: 55px&quot;&gt;Finding Data on COVID-19 Case by County&lt;/font&gt;&lt;/b&gt;" style="text;html=1;strokeColor=none;fillColor=none;align=center;verticalAlign=middle;whiteSpace=wrap;rounded=0;fontSize=47;" parent="1" vertex="1">
          <mxGeometry x="650" y="-1735" width="470" height="130" as="geometry" />
        </mxCell>
        <mxCell id="Hv8IBSRjTYZ65yWQU2d2-152" value="" style="endArrow=classic;dashed=1;endFill=1;endSize=12;html=1;fontSize=38;spacing=5;spacingTop=16;fontStyle=0;strokeWidth=5;startArrow=none;startFill=0;" parent="1" edge="1">
          <mxGeometry width="160" relative="1" as="geometry">
            <mxPoint x="890" y="-1530" as="sourcePoint" />
            <mxPoint x="920" y="-1180" as="targetPoint" />
          </mxGeometry>
        </mxCell>
        <mxCell id="Hv8IBSRjTYZ65yWQU2d2-153" value="&lt;b&gt;&lt;font style=&quot;font-size: 50px&quot;&gt;&amp;lt;&amp;lt;extends&amp;gt;&amp;gt;&lt;/font&gt;&lt;/b&gt;" style="text;html=1;strokeColor=none;fillColor=none;align=center;verticalAlign=middle;whiteSpace=wrap;rounded=0;fontSize=30;rotation=0;" parent="1" vertex="1">
          <mxGeometry x="590" y="-1560" width="380" height="130" as="geometry" />
        </mxCell>
        <mxCell id="Hv8IBSRjTYZ65yWQU2d2-155" value="&lt;b&gt;&lt;font style=&quot;font-size: 50px&quot;&gt;Mortician&lt;/font&gt;&lt;/b&gt;" style="shape=umlActor;verticalLabelPosition=bottom;verticalAlign=top;html=1;fontSize=38;" parent="1" vertex="1">
          <mxGeometry x="2590" y="-200" width="310" height="490" as="geometry" />
        </mxCell>
        <mxCell id="Hv8IBSRjTYZ65yWQU2d2-156" value="" style="endArrow=none;html=1;strokeWidth=1;fontSize=30;" parent="1" edge="1">
          <mxGeometry width="50" height="50" relative="1" as="geometry">
            <mxPoint x="2660" y="-260" as="sourcePoint" />
            <mxPoint x="2130" y="-890" as="targetPoint" />
          </mxGeometry>
        </mxCell>
        <mxCell id="Hv8IBSRjTYZ65yWQU2d2-157" value="" style="ellipse;whiteSpace=wrap;html=1;fontSize=26;" parent="1" vertex="1">
          <mxGeometry x="1695" y="-1810" width="590" height="260" as="geometry" />
        </mxCell>
        <mxCell id="Hv8IBSRjTYZ65yWQU2d2-158" value="&lt;b&gt;&lt;font style=&quot;font-size: 55px&quot;&gt;Finding Data on COVID-19 Death by County&lt;/font&gt;&lt;/b&gt;" style="text;html=1;strokeColor=none;fillColor=none;align=center;verticalAlign=middle;whiteSpace=wrap;rounded=0;fontSize=47;" parent="1" vertex="1">
          <mxGeometry x="1750" y="-1745" width="460" height="130" as="geometry" />
        </mxCell>
        <mxCell id="Hv8IBSRjTYZ65yWQU2d2-159" value="" style="endArrow=classic;dashed=1;endFill=1;endSize=12;html=1;fontSize=38;spacing=5;spacingTop=16;fontStyle=0;strokeWidth=5;startArrow=none;startFill=0;" parent="1" edge="1">
          <mxGeometry width="160" relative="1" as="geometry">
            <mxPoint x="1990" y="-1540" as="sourcePoint" />
            <mxPoint x="2020" y="-1190" as="targetPoint" />
          </mxGeometry>
        </mxCell>
        <mxCell id="Hv8IBSRjTYZ65yWQU2d2-160" value="&lt;b&gt;&lt;font style=&quot;font-size: 50px&quot;&gt;&amp;lt;&amp;lt;extends&amp;gt;&amp;gt;&lt;/font&gt;&lt;/b&gt;" style="text;html=1;strokeColor=none;fillColor=none;align=center;verticalAlign=middle;whiteSpace=wrap;rounded=0;fontSize=30;rotation=0;" parent="1" vertex="1">
          <mxGeometry x="1690" y="-1550" width="380" height="110" as="geometry" />
        </mxCell>
        <mxCell id="Hv8IBSRjTYZ65yWQU2d2-161" value="&lt;font style=&quot;font-size: 50px&quot;&gt;&lt;b&gt;Political Activists&lt;/b&gt;&lt;/font&gt;" style="shape=umlActor;verticalLabelPosition=bottom;verticalAlign=top;html=1;" parent="1" vertex="1">
          <mxGeometry x="-660" y="70" width="310" height="490" as="geometry" />
        </mxCell>
        <mxCell id="Hv8IBSRjTYZ65yWQU2d2-163" value="" style="endArrow=none;html=1;strokeWidth=1;fontSize=30;" parent="1" edge="1">
          <mxGeometry width="50" height="50" relative="1" as="geometry">
            <mxPoint x="-500" y="40" as="sourcePoint" />
            <mxPoint x="-270" y="-499" as="targetPoint" />
            <Array as="points" />
          </mxGeometry>
        </mxCell>
        <mxCell id="Hv8IBSRjTYZ65yWQU2d2-164" value="" style="ellipse;whiteSpace=wrap;html=1;fontSize=26;" parent="1" vertex="1">
          <mxGeometry x="-420" y="-780" width="590" height="260" as="geometry" />
        </mxCell>
        <mxCell id="Hv8IBSRjTYZ65yWQU2d2-165" value="&lt;font style=&quot;font-size: 55px&quot;&gt;&lt;b&gt;Organizing arguments on the quality of inmate life&lt;/b&gt;&lt;/font&gt;" style="text;html=1;strokeColor=none;fillColor=none;align=center;verticalAlign=middle;whiteSpace=wrap;rounded=0;fontSize=47;" parent="1" vertex="1">
          <mxGeometry x="-365" y="-715" width="505" height="130" as="geometry" />
        </mxCell>
        <mxCell id="Hv8IBSRjTYZ65yWQU2d2-166" value="" style="endArrow=classic;dashed=1;endFill=1;endSize=12;html=1;fontSize=38;spacing=5;spacingTop=16;fontStyle=0;strokeWidth=5;startArrow=none;startFill=0;entryX=0.036;entryY=0.71;entryDx=0;entryDy=0;entryPerimeter=0;" parent="1" source="Hv8IBSRjTYZ65yWQU2d2-164" target="Hv8IBSRjTYZ65yWQU2d2-122" edge="1">
          <mxGeometry width="160" relative="1" as="geometry">
            <mxPoint x="-30" y="-974" as="sourcePoint" />
            <mxPoint x="580" y="-1150" as="targetPoint" />
          </mxGeometry>
        </mxCell>
        <mxCell id="Hv8IBSRjTYZ65yWQU2d2-167" value="&lt;b&gt;&lt;font style=&quot;font-size: 50px&quot;&gt;&amp;lt;&amp;lt;include&amp;gt;&amp;gt;&lt;/font&gt;&lt;/b&gt;" style="text;html=1;strokeColor=none;fillColor=none;align=center;verticalAlign=middle;whiteSpace=wrap;rounded=0;fontSize=30;rotation=0;" parent="1" vertex="1">
          <mxGeometry x="190" y="-1010" width="380" height="130" as="geometry" />
        </mxCell>
      </root>
    </mxGraphModel>
  </diagram>
</mxfile>
